<?xml version="1.0" standalone="no"?>
<svg viewBox="0 0 200 200" xmlns="http://www.w3.org/2000/svg">
  <path fill="#FF8906" d="M43.6,-71.7C57.3,-67.5,69.9,-57.6,73.2,-44.6C76.6,-31.7,70.8,-15.9,69.2,-0.9C67.7,14.1,70.4,28.1,67.8,42.4C65.2,56.7,57.3,71.2,45.1,75.7C33,80.2,16.5,74.8,0.4,74.1C-15.6,73.3,-31.2,77.1,-38.4,69.7C-45.7,62.4,-44.6,43.7,-51.5,30.2C-58.5,16.7,-73.4,8.4,-79.1,-3.3C-84.8,-14.9,-81.2,-29.9,-72.9,-41.1C-64.7,-52.3,-51.7,-59.7,-38.8,-64.4C-25.9,-69,-12.9,-70.7,1,-72.5C14.9,-74.2,29.8,-75.8,43.6,-71.7Z" transform="translate(100 100)" />
</svg>
