<?xml version="1.0" encoding="UTF-8" standalone="no"?><!DOCTYPE svg PUBLIC "-//W3C//DTD SVG 1.1//EN" "http://www.w3.org/Graphics/SVG/1.1/DTD/svg11.dtd"><svg width="100%" height="100%" viewBox="0 0 1598 2649" version="1.1" xmlns="http://www.w3.org/2000/svg" xmlns:xlink="http://www.w3.org/1999/xlink" xml:space="preserve" xmlns:serif="http://www.serif.com/" style="fill-rule:evenodd;clip-rule:evenodd;stroke-linecap:round;stroke-linejoin:round;stroke-miterlimit:1.5;"><g><g id="Calque1"><circle cx="1387.4" cy="2320.39" r="6.295" style="fill:#fff;stroke:#fff;stroke-width:2.78px;"/><circle cx="1386.75" cy="2355.71" r="6.295" style="fill:#fff;stroke:#fff;stroke-width:2.78px;"/><circle cx="206.686" cy="1020.53" r="6.153" style="fill:#fff;stroke:#fff;stroke-width:2.78px;"/><circle cx="205.765" cy="1056.61" r="6.153" style="fill:#fff;stroke:#fff;stroke-width:2.78px;"/><path d="M849.306,895.365c0,0 21.248,-37.297 91.321,-10.285c0,0 69.675,-36.443 134.145,3.997" style="fill:none;stroke:#ebebeb;stroke-width:12px;"/><path d="M1367.26,479.232c10.21,-14.352 20.325,-16.539 30.629,-14.58c10.304,1.959 27.328,13.287 31.194,26.334c5.398,18.222 2.506,52.964 -1.454,80.347c-3.995,27.63 -13.686,70.308 -22.516,85.429c-4.862,8.326 -20.014,7.91 -27.814,7.946c-6.831,0.033 -18.984,-7.726 -18.984,-7.726" style="fill:none;stroke:#ebebeb;stroke-width:12px;"/></g><g id="Calque9"><path d="M187.458,992.91c-0,-0 0.984,89.032 1.369,123.855c0.313,28.361 -1.96,62.701 0.94,85.084c0.789,6.089 10.853,10.864 15.484,9.973c4.63,-0.891 13.557,-9.309 14.1,-13.683c4.401,-35.491 5.439,-201.549 5.439,-201.549" style="fill:#fff;fill-opacity:0;stroke:#fff;stroke-width:2.78px;"/><path d="M187.458,992.91c-0,-0 0.984,89.032 1.369,123.855c0.313,28.361 -1.96,62.701 0.94,85.084c0.789,6.089 10.853,10.864 15.484,9.973c4.63,-0.891 13.557,-9.309 14.1,-13.683c4.401,-35.491 5.439,-201.549 5.439,-201.549" style="fill:#fff;fill-opacity:0;stroke:#fff;stroke-width:2.78px;"/></g><g id="Calque2"><path d="M561.875,1665.53c-48.713,32.618 -284.508,186.56 -419.658,196.946c-4.198,0.323 -4.46,0.224 -9.154,-3.88c-52.701,-46.078 -164.385,-212.885 -124.708,-488.98c1.213,-8.438 24.039,-205.862 33.49,-291.523c7.219,-65.434 6.47,-65.578 9.097,-75.601c4.776,-18.225 13.879,-19.147 25.876,-20.287c47.564,-4.519 170.07,5.374 182.235,8.452c12.063,3.053 25.777,13.196 26.078,26.554c0.987,43.928 -16.636,379.476 15.981,440.443c4.167,7.788 7.255,6.877 8.057,6.641c1.406,-0.415 7.935,-2.956 15.938,-7.963c64.494,-40.353 159.756,-175.046 222.925,-227.339c51.15,-42.342 102.877,-91.973 167.758,-99.143c76.219,-8.424 441.524,-27.605 575.208,0.892c110.956,23.652 282.054,281.852 293.272,464.363c13.635,221.837 21.4,697.148 -0.448,829.446c-2.235,13.535 -24.13,12.55 -48.958,8.919c-41.605,-6.085 -100.3,-21.715 -136.628,-26.39c-17.624,-2.269 -31.74,-10.837 -31.474,-18.596c2.026,-58.994 11.066,-267.296 -3.716,-436.707c-6.359,-72.875 -15.392,-118.581 -22.932,-147.074c-2.739,222.406 -1.192,347.076 -3.504,536.804c-0.819,67.136 -0.999,92.94 -1.163,103.114l-1.943,131.169c-2.988,-97.657 -3.76,-120.103 -6.141,-254.058c-1.728,-97.27 -1.502,-214.381 -0.74,-344.921c0.663,-113.516 1.829,-209.06 2.08,-210.382c1.06,-5.581 9.061,-6.891 11.506,-1.011c3.067,7.376 6.977,20.329 7.517,22.118c47.646,157.824 35.168,487.859 31.092,599.691c3.295,3.115 11.019,6.595 20.25,7.857c41.674,5.699 84.538,17.675 128.218,25.037c2.699,0.456 37.096,6.557 44.765,2.028c1.409,-8.55 15.268,-84.554 13.267,-387.356c-1.547,-234.119 -11.411,-425.158 -14.042,-451.52c-17.46,-174.983 -176.539,-412.782 -279.242,-439.952c-0.937,-0.248 -15.658,-3.973 -45.475,-7.45c-163.976,-19.126 -499.683,0.443 -537.923,7.11c-57.14,9.96 -105.192,55.722 -152.948,95.256c-68.117,56.387 -176.053,212.96 -241.903,237.17c-5.028,1.848 -16.541,3.581 -25.162,-15.983c-31.489,-71.458 -15.172,-378.136 -15.462,-439.185c-0.011,-2.472 0.98,-7.544 -7.648,-13.62c-5.592,-3.938 -10.834,-4.662 -11.847,-4.802c-32.738,-4.525 -151.571,-12.65 -183.528,-6.64c-4.384,0.825 -8.034,4.04 -10.486,28.931c-0.861,8.745 -4.643,48.264 -31.129,276.81c-7.049,60.818 -7.352,63.663 -8.75,73.666c-37.294,266.755 69.047,429.712 122.24,475.858c22.072,-1.754 106.923,-10.213 307.564,-128.583c64.6,-38.111 111.546,-70.281 113.017,-71.283c0.049,-0.034 2.572,-2.226 5.718,-1.396c1.827,0.483 4.05,2.176 4.432,5.141c1.599,12.386 4.042,40.324 4.348,43.834c2.241,25.632 15.833,172.328 10.428,466.911c-1.009,55.015 -3.542,117.103 -3.957,127.282c-0.452,11.082 -2.171,53.219 -7.266,138.449c-1.942,32.476 -7.166,103.912 -10.913,148.093c1.428,-36.337 1.564,-37.853 5.137,-169.165c0.802,-29.46 5.641,-235.082 6.171,-347.039c1.09,-230.535 -9.598,-347.615 -14.817,-397.156Z" style="fill:#ebebeb;"/></g><g id="Calque3"><path d="M88.849,986.288c-17.6,-42.536 -17.364,-73.015 -10.454,-100.969c9.553,-38.649 -7.826,-70.835 -7.826,-70.835c-0,-0 -28.162,-64.551 -33.795,-88.489c-4.21,-17.891 -15.111,-48.013 0,-55.139c32.212,-15.19 38.48,13.982 46.69,35.129c7.978,20.547 21.579,75.226 37.893,73.455c8.756,-0.95 5.626,-127.616 11.91,-158.387c2.453,-12.015 8.696,-25.792 25.791,-26.235c14.921,-0.386 21.715,14.262 23.352,23.425c4.595,25.717 -3.675,145.826 4.217,142.811c7.892,-3.015 30.83,-131.86 43.133,-160.9c4.35,-10.269 21.602,-15.71 30.682,-13.34c13.372,3.491 21.444,22.877 20.454,36.907c-2.149,30.46 -39.797,138.588 -33.35,145.851c6.448,7.263 54.027,-82.412 72.036,-102.273c8.908,-9.825 28.978,-20.826 36.019,-16.898c7.04,3.928 10.315,27.445 6.225,40.465c-8.078,25.717 -42.836,82.93 -54.694,113.835c-8.772,22.861 -20.603,66.848 -16.453,71.591c4.15,4.743 26.458,-35.203 41.354,-43.132c14.191,-7.555 39.205,-9.857 48.024,-4.447c8.819,5.41 11.114,26.17 4.892,36.907c-8.375,14.452 -47.48,41.447 -47.48,41.447c0,0 -17.357,23.968 -27.776,34.311c-14.468,14.362 -59.034,51.862 -59.034,51.862" style="fill:none;stroke:#ebebeb;stroke-width:12px;"/></g><g id="Calque4"><path d="M1377.53,2393.73c-12.159,17.185 -16.223,32.549 -14.831,49.557c1.391,17.008 3.065,54.437 23.402,58.705c19.708,4.136 27.975,-49.829 37.079,-46.982c9.104,2.848 19.535,43.112 17.547,64.066c-1.989,20.955 -31.17,41.051 -29.476,61.661c1.694,20.61 9.077,59.762 39.639,61.999c26.276,1.923 82.142,-51.436 101.081,-86.765c18.939,-35.329 12.553,-125.208 12.553,-125.208" style="fill:none;stroke:#ebebeb;stroke-width:12px;"/></g><g><g id="Calque5"><path d="M962.48,1063.17c-129.782,-2.962 -204.866,-34.211 -288.492,-162.665c-38.777,-59.563 -69.642,-125.795 -86.732,-194.783c-17.133,-69.164 -10.522,-182.143 -16.069,-220.2c-0.915,-6.279 -17.356,-1.797 -17.207,-8.141c0.816,-34.721 6.764,-151.19 16.683,-200.905c6.847,-34.323 38.713,-97.621 60.536,-125.574c40.114,-51.38 92.302,-74.276 146.043,-97.448c56.22,-24.24 121.205,-47.398 186.94,-47.449c98.367,-0.076 161.835,34.365 216.788,66.506c48.759,28.518 83.151,83.61 111.266,130.783c28.115,47.172 44.09,107.701 57.425,152.251c11.207,37.44 15.512,78.362 16.962,117.417c1.882,50.701 -1.502,125.884 -7.741,175.838c-4.846,38.802 -19.723,81.117 -38.867,124.476c-26.581,60.204 -74.528,143.595 -135.967,191.973c-58.687,46.209 -116.418,100.321 -221.568,97.921Z" style="fill:none;stroke:#ebebeb;stroke-width:12px;"/></g><g id="Calque6"><path d="M959.585,983.816c-187.715,-1.724 -234.691,-85.658 -278.41,-139.69c-50.269,-62.127 -64.037,-129.044 -77.392,-190.757c-12.357,-57.099 -10.65,-141.942 -2.738,-179.52c4.674,-22.199 38.682,-27.631 50.208,-45.946c11.526,-18.315 -7.777,-52.613 14.21,-55.892c46.578,-6.947 94.892,17.762 262.886,20.841c69.474,1.273 154.731,0.237 200.361,-7.105c23.428,-3.77 59.603,-39.788 73.418,-36.946c13.815,2.842 -1.606,49.379 10.421,66.313c21.473,30.236 94.557,86.403 101.364,121.733c11.649,60.457 -4.684,188.037 -41.209,241.096c-31.004,45.04 -63.259,80.752 -105.154,113.68c-49.4,38.828 -98.776,93.197 -207.965,92.193Z" style="fill:none;stroke:#ebebeb;stroke-width:12px;"/></g></g><g id="Calque7"><path d="M555.44,479.811c0,0 -35.596,-9.382 -36.721,7.127c-2.549,37.389 -17.384,164.272 21.522,217.213c0,0 18.147,20.075 46.913,1.036" style="fill:none;stroke:#ebebeb;stroke-width:12px;"/><path d="M813.376,847.356c11.906,-2.757 142.165,-0.146 142.165,-0.146c-0,0 131.917,-1.139 143.744,0.964c16.986,3.02 -20.273,40.874 -40.252,50.811c-22.369,11.127 -64.708,15.457 -93.961,15.948c-45.027,0.755 -78.903,-0.446 -107.328,-14.672c-33.079,-16.554 -57.615,-49.838 -44.368,-52.905Z" style="fill:none;stroke:#ebebeb;stroke-width:12px;"/></g><g id="Calque8"><path d="M938.515,1124.66c-0,0 -5.808,328.9 -2.002,398.047c0.55,9.987 16.661,16.414 24.841,16.835c8.181,0.421 29.741,-6.071 29.802,-15.455c0.463,-71.521 4.374,-401.898 4.374,-401.898" style="fill:#fff;fill-opacity:0;stroke:#fff;stroke-width:2.78px;"/><circle cx="966.032" cy="1192.64" r="10.996" style="fill:#fff;"/><circle cx="965.868" cy="1323.64" r="10.996" style="fill:#fff;"/><circle cx="964.233" cy="1460.7" r="10.996" style="fill:#fff;"/></g><g id="Calque10"><path d="M1381.08,2169.72c0,0 8.503,-8.857 13.735,-8.503c5.233,0.355 17.951,3.765 17.66,10.629c-4.987,117.376 -5.124,170.218 -9.321,207.009c-0.792,6.948 -5.178,14.389 -15.86,13.735" style="fill:#fff;fill-opacity:0;stroke:#fff;stroke-width:2.78px;"/></g></g></svg>